<mxfile host="65bd71144e">
    <diagram id="ERRANNHULU-bSqBF8AOw" name="Pagina-1">
        <mxGraphModel dx="1951" dy="1318" grid="1" gridSize="10" guides="1" tooltips="1" connect="1" arrows="1" fold="1" page="1" pageScale="1" pageWidth="1169" pageHeight="827" math="0" shadow="0">
            <root>
                <mxCell id="0"/>
                <mxCell id="1" parent="0"/>
                <mxCell id="415" value="" style="rounded=0;whiteSpace=wrap;html=1;fillColor=none;strokeColor=#000000;" parent="1" vertex="1">
                    <mxGeometry x="-247.54999999999995" y="120" width="840" height="200" as="geometry"/>
                </mxCell>
                <mxCell id="76" value="" style="shape=cube;whiteSpace=wrap;html=1;boundedLbl=1;backgroundOutline=1;darkOpacity=0.05;darkOpacity2=0.1;size=20;direction=east;flipH=1;fillColor=#dae8fc;strokeColor=#6c8ebf;" parent="1" vertex="1">
                    <mxGeometry x="-270" y="-183" width="40" height="210" as="geometry"/>
                </mxCell>
                <mxCell id="77" value="" style="shape=cube;whiteSpace=wrap;html=1;boundedLbl=1;backgroundOutline=1;darkOpacity=0.05;darkOpacity2=0.1;size=20;direction=east;flipH=1;fillColor=#d5e8d4;strokeColor=#82b366;" parent="1" vertex="1">
                    <mxGeometry x="265.99" y="-145" width="36" height="120" as="geometry"/>
                </mxCell>
                <mxCell id="78" value="" style="shape=cube;whiteSpace=wrap;html=1;boundedLbl=1;backgroundOutline=1;darkOpacity=0.05;darkOpacity2=0.1;size=10;direction=east;flipH=1;fillColor=#d5e8d4;strokeColor=#82b366;" parent="1" vertex="1">
                    <mxGeometry x="342.99000000000007" y="-117.5" width="25" height="65" as="geometry"/>
                </mxCell>
                <mxCell id="79" value="n x m x c" style="text;html=1;strokeColor=none;fillColor=none;align=center;verticalAlign=middle;whiteSpace=wrap;rounded=0;" parent="1" vertex="1">
                    <mxGeometry x="-301.26" y="55.07" width="99" height="30" as="geometry"/>
                </mxCell>
                <mxCell id="417" style="edgeStyle=none;html=1;entryX=-0.007;entryY=0.54;entryDx=0;entryDy=0;entryPerimeter=0;" parent="1" source="80" target="398" edge="1">
                    <mxGeometry relative="1" as="geometry"/>
                </mxCell>
                <mxCell id="80" value="" style="shape=trapezoid;perimeter=trapezoidPerimeter;whiteSpace=wrap;html=1;fixedSize=1;rotation=90;dashed=1;dashPattern=1 1;fillColor=none;direction=west;size=38.41000000000008;" parent="1" vertex="1">
                    <mxGeometry x="209.99999999999997" y="-146.23" width="207.98" height="122.45" as="geometry"/>
                </mxCell>
                <mxCell id="87" value="LSTM Encoder For Target History" style="text;html=1;strokeColor=none;fillColor=none;align=center;verticalAlign=middle;whiteSpace=wrap;rounded=0;strokeWidth=4;" parent="1" vertex="1">
                    <mxGeometry x="265.99" y="-220" width="93.73" height="30" as="geometry"/>
                </mxCell>
                <mxCell id="117" value="" style="group" parent="1" vertex="1" connectable="0">
                    <mxGeometry x="-63.09" y="-200" width="119.45999999999998" height="244" as="geometry"/>
                </mxCell>
                <mxCell id="118" value="" style="ellipse;whiteSpace=wrap;html=1;aspect=fixed;strokeColor=#d6b656;fillColor=#fff2cc;container=0;" parent="117" vertex="1">
                    <mxGeometry y="170" width="40" height="40" as="geometry"/>
                </mxCell>
                <mxCell id="119" value="" style="ellipse;whiteSpace=wrap;html=1;aspect=fixed;fillColor=none;strokeWidth=1.5;container=0;" parent="117" vertex="1">
                    <mxGeometry x="7.534999999999997" y="177.52999999999997" width="24.93" height="24.93" as="geometry"/>
                </mxCell>
                <mxCell id="120" value="" style="ellipse;whiteSpace=wrap;html=1;aspect=fixed;strokeColor=#d6b656;fillColor=#fff2cc;container=0;" parent="117" vertex="1">
                    <mxGeometry y="100" width="40" height="40" as="geometry"/>
                </mxCell>
                <mxCell id="121" value="" style="ellipse;whiteSpace=wrap;html=1;aspect=fixed;fillColor=none;strokeWidth=1.5;container=0;" parent="117" vertex="1">
                    <mxGeometry x="7.534999999999997" y="107.52999999999997" width="24.93" height="24.93" as="geometry"/>
                </mxCell>
                <mxCell id="122" value="" style="ellipse;whiteSpace=wrap;html=1;aspect=fixed;strokeColor=#d6b656;fillColor=#fff2cc;container=0;" parent="117" vertex="1">
                    <mxGeometry y="30" width="40" height="40" as="geometry"/>
                </mxCell>
                <mxCell id="123" value="" style="ellipse;whiteSpace=wrap;html=1;aspect=fixed;fillColor=none;strokeWidth=1.5;container=0;" parent="117" vertex="1">
                    <mxGeometry x="7.534999999999997" y="37.52999999999997" width="24.93" height="24.93" as="geometry"/>
                </mxCell>
                <mxCell id="124" value="" style="ellipse;whiteSpace=wrap;html=1;aspect=fixed;strokeColor=#82b366;fillColor=#d5e8d4;container=0;" parent="117" vertex="1">
                    <mxGeometry x="79" y="134" width="40" height="40" as="geometry"/>
                </mxCell>
                <mxCell id="125" value="" style="ellipse;whiteSpace=wrap;html=1;aspect=fixed;fillColor=none;strokeWidth=1.5;container=0;" parent="117" vertex="1">
                    <mxGeometry x="87" y="141.52999999999997" width="24.93" height="24.93" as="geometry"/>
                </mxCell>
                <mxCell id="126" value="" style="ellipse;whiteSpace=wrap;html=1;aspect=fixed;strokeColor=#82b366;fillColor=#d5e8d4;container=0;" parent="117" vertex="1">
                    <mxGeometry x="79" y="204" width="40" height="40" as="geometry"/>
                </mxCell>
                <mxCell id="127" value="" style="ellipse;whiteSpace=wrap;html=1;aspect=fixed;fillColor=none;strokeWidth=1.5;container=0;" parent="117" vertex="1">
                    <mxGeometry x="86.53499999999997" y="211.52999999999997" width="24.93" height="24.93" as="geometry"/>
                </mxCell>
                <mxCell id="128" value="" style="ellipse;whiteSpace=wrap;html=1;aspect=fixed;strokeColor=#82b366;fillColor=#d5e8d4;container=0;" parent="117" vertex="1">
                    <mxGeometry x="79.45999999999998" width="40" height="40" as="geometry"/>
                </mxCell>
                <mxCell id="129" value="" style="ellipse;whiteSpace=wrap;html=1;aspect=fixed;fillColor=none;strokeWidth=1.5;container=0;" parent="117" vertex="1">
                    <mxGeometry x="87.45999999999998" y="7.529999999999973" width="24.93" height="24.93" as="geometry"/>
                </mxCell>
                <mxCell id="130" value="" style="ellipse;whiteSpace=wrap;html=1;aspect=fixed;strokeColor=#82b366;fillColor=#d5e8d4;container=0;" parent="117" vertex="1">
                    <mxGeometry x="79.45999999999998" y="70" width="40" height="40" as="geometry"/>
                </mxCell>
                <mxCell id="131" value="" style="ellipse;whiteSpace=wrap;html=1;aspect=fixed;fillColor=none;strokeWidth=1.5;container=0;" parent="117" vertex="1">
                    <mxGeometry x="86.99499999999995" y="77.52999999999997" width="24.93" height="24.93" as="geometry"/>
                </mxCell>
                <mxCell id="132" value="" style="endArrow=none;html=1;rounded=0;fontSize=12;exitX=1;exitY=0;exitDx=0;exitDy=0;entryX=0;entryY=0.5;entryDx=0;entryDy=0;" parent="117" source="122" target="128" edge="1">
                    <mxGeometry width="50" height="50" relative="1" as="geometry">
                        <mxPoint x="180" y="120" as="sourcePoint"/>
                        <mxPoint x="230" y="70" as="targetPoint"/>
                    </mxGeometry>
                </mxCell>
                <mxCell id="133" value="" style="endArrow=none;html=1;rounded=0;fontSize=12;exitX=1;exitY=0.5;exitDx=0;exitDy=0;entryX=0;entryY=0;entryDx=0;entryDy=0;" parent="117" source="122" target="130" edge="1">
                    <mxGeometry width="50" height="50" relative="1" as="geometry">
                        <mxPoint x="44.142135623731065" y="45.857864376268935" as="sourcePoint"/>
                        <mxPoint x="89.46000000000481" y="30" as="targetPoint"/>
                    </mxGeometry>
                </mxCell>
                <mxCell id="134" value="" style="endArrow=none;html=1;rounded=0;fontSize=12;exitX=1;exitY=1;exitDx=0;exitDy=0;entryX=0;entryY=0;entryDx=0;entryDy=0;" parent="117" source="122" target="124" edge="1">
                    <mxGeometry width="50" height="50" relative="1" as="geometry">
                        <mxPoint x="44.142135623731065" y="74.14213562373106" as="sourcePoint"/>
                        <mxPoint x="95.31786437627579" y="85.85786437627576" as="targetPoint"/>
                    </mxGeometry>
                </mxCell>
                <mxCell id="135" value="" style="endArrow=none;html=1;rounded=0;fontSize=12;exitX=1;exitY=1;exitDx=0;exitDy=0;entryX=0;entryY=0;entryDx=0;entryDy=0;" parent="117" source="122" target="126" edge="1">
                    <mxGeometry width="50" height="50" relative="1" as="geometry">
                        <mxPoint x="44.142135623731065" y="74.14213562373106" as="sourcePoint"/>
                        <mxPoint x="94.85786437626894" y="149.85786437626894" as="targetPoint"/>
                    </mxGeometry>
                </mxCell>
                <mxCell id="136" value="" style="endArrow=none;html=1;rounded=0;fontSize=12;exitX=1;exitY=0.5;exitDx=0;exitDy=0;entryX=0;entryY=0.5;entryDx=0;entryDy=0;" parent="117" source="120" target="124" edge="1">
                    <mxGeometry width="50" height="50" relative="1" as="geometry">
                        <mxPoint x="44.142135623731065" y="74.14213562373106" as="sourcePoint"/>
                        <mxPoint x="94.85786437626894" y="219.85786437626894" as="targetPoint"/>
                    </mxGeometry>
                </mxCell>
                <mxCell id="137" value="" style="endArrow=none;html=1;rounded=0;fontSize=12;exitX=1;exitY=0.5;exitDx=0;exitDy=0;entryX=0;entryY=0.5;entryDx=0;entryDy=0;" parent="117" source="118" target="126" edge="1">
                    <mxGeometry width="50" height="50" relative="1" as="geometry">
                        <mxPoint x="50" y="130" as="sourcePoint"/>
                        <mxPoint x="89" y="164" as="targetPoint"/>
                    </mxGeometry>
                </mxCell>
                <mxCell id="138" value="" style="endArrow=none;html=1;rounded=0;fontSize=12;exitX=1;exitY=0;exitDx=0;exitDy=0;entryX=0;entryY=0.5;entryDx=0;entryDy=0;" parent="117" source="118" target="124" edge="1">
                    <mxGeometry width="50" height="50" relative="1" as="geometry">
                        <mxPoint x="50" y="200" as="sourcePoint"/>
                        <mxPoint x="89" y="234" as="targetPoint"/>
                    </mxGeometry>
                </mxCell>
                <mxCell id="139" value="" style="endArrow=none;html=1;rounded=0;fontSize=12;exitX=1;exitY=0;exitDx=0;exitDy=0;entryX=0;entryY=1;entryDx=0;entryDy=0;" parent="117" source="118" target="130" edge="1">
                    <mxGeometry width="50" height="50" relative="1" as="geometry">
                        <mxPoint x="44.142135623731065" y="185.85786437626894" as="sourcePoint"/>
                        <mxPoint x="89" y="164" as="targetPoint"/>
                    </mxGeometry>
                </mxCell>
                <mxCell id="140" value="" style="endArrow=none;html=1;rounded=0;fontSize=12;exitX=1;exitY=0;exitDx=0;exitDy=0;entryX=0;entryY=1;entryDx=0;entryDy=0;" parent="117" source="118" target="128" edge="1">
                    <mxGeometry width="50" height="50" relative="1" as="geometry">
                        <mxPoint x="44.142135623731065" y="185.85786437626894" as="sourcePoint"/>
                        <mxPoint x="95.31786437627579" y="114.14213562372424" as="targetPoint"/>
                    </mxGeometry>
                </mxCell>
                <mxCell id="141" value="" style="endArrow=none;html=1;rounded=0;fontSize=12;exitX=1;exitY=0;exitDx=0;exitDy=0;entryX=0;entryY=1;entryDx=0;entryDy=0;" parent="117" source="120" target="128" edge="1">
                    <mxGeometry width="50" height="50" relative="1" as="geometry">
                        <mxPoint x="44.142135623731065" y="185.85786437626894" as="sourcePoint"/>
                        <mxPoint x="95.31786437627579" y="44.14213562372424" as="targetPoint"/>
                    </mxGeometry>
                </mxCell>
                <mxCell id="142" value="" style="endArrow=none;html=1;rounded=0;fontSize=12;exitX=1;exitY=1;exitDx=0;exitDy=0;entryX=0;entryY=0;entryDx=0;entryDy=0;" parent="117" source="120" target="126" edge="1">
                    <mxGeometry width="50" height="50" relative="1" as="geometry">
                        <mxPoint x="44.142135623731065" y="115.85786437626894" as="sourcePoint"/>
                        <mxPoint x="95.31786437627579" y="44.14213562372424" as="targetPoint"/>
                    </mxGeometry>
                </mxCell>
                <mxCell id="143" value="" style="endArrow=none;html=1;rounded=0;fontSize=12;exitX=1;exitY=0.5;exitDx=0;exitDy=0;entryX=0;entryY=0.5;entryDx=0;entryDy=0;" parent="117" source="120" target="130" edge="1">
                    <mxGeometry width="50" height="50" relative="1" as="geometry">
                        <mxPoint x="44.142135623731065" y="144.14213562373106" as="sourcePoint"/>
                        <mxPoint x="94.85786437626894" y="219.85786437626894" as="targetPoint"/>
                    </mxGeometry>
                </mxCell>
                <mxCell id="399" style="edgeStyle=none;html=1;entryX=0.011;entryY=0.465;entryDx=0;entryDy=0;entryPerimeter=0;endArrow=classic;endFill=1;" parent="1" target="266" edge="1">
                    <mxGeometry relative="1" as="geometry">
                        <mxPoint x="-230" y="-82" as="sourcePoint"/>
                    </mxGeometry>
                </mxCell>
                <mxCell id="173" value="Trajectory" style="text;html=1;strokeColor=none;fillColor=none;align=center;verticalAlign=middle;whiteSpace=wrap;rounded=0;strokeWidth=4;" parent="1" vertex="1">
                    <mxGeometry x="-280" y="-231.07" width="60" height="30" as="geometry"/>
                </mxCell>
                <mxCell id="416" style="edgeStyle=none;html=1;entryX=0.479;entryY=-0.007;entryDx=0;entryDy=0;entryPerimeter=0;exitX=0.998;exitY=0.47;exitDx=0;exitDy=0;exitPerimeter=0;" parent="1" source="266" target="80" edge="1">
                    <mxGeometry relative="1" as="geometry"/>
                </mxCell>
                <mxCell id="266" value="" style="rounded=0;whiteSpace=wrap;html=1;strokeWidth=4;fillColor=none;" parent="1" vertex="1">
                    <mxGeometry x="-65.53999999999999" y="-210" width="130.54" height="275.07" as="geometry"/>
                </mxCell>
                <mxCell id="365" value="" style="group" parent="1" vertex="1" connectable="0">
                    <mxGeometry x="437.98999999999995" y="-220" width="130" height="275.07" as="geometry"/>
                </mxCell>
                <mxCell id="366" value="" style="ellipse;whiteSpace=wrap;html=1;aspect=fixed;strokeColor=#d6b656;fillColor=#fff2cc;container=0;" parent="365" vertex="1">
                    <mxGeometry y="161.07" width="40" height="40" as="geometry"/>
                </mxCell>
                <mxCell id="367" value="" style="ellipse;whiteSpace=wrap;html=1;aspect=fixed;fillColor=none;strokeWidth=1.5;container=0;" parent="365" vertex="1">
                    <mxGeometry x="7.534999999999997" y="168.59999999999997" width="24.93" height="24.93" as="geometry"/>
                </mxCell>
                <mxCell id="368" value="" style="ellipse;whiteSpace=wrap;html=1;aspect=fixed;strokeColor=#d6b656;fillColor=#fff2cc;container=0;" parent="365" vertex="1">
                    <mxGeometry y="100" width="40" height="40" as="geometry"/>
                </mxCell>
                <mxCell id="369" value="" style="ellipse;whiteSpace=wrap;html=1;aspect=fixed;fillColor=none;strokeWidth=1.5;container=0;" parent="365" vertex="1">
                    <mxGeometry x="7.534999999999997" y="107.52999999999997" width="24.93" height="24.93" as="geometry"/>
                </mxCell>
                <mxCell id="370" value="" style="ellipse;whiteSpace=wrap;html=1;aspect=fixed;strokeColor=#d6b656;fillColor=#fff2cc;container=0;" parent="365" vertex="1">
                    <mxGeometry y="41.07" width="40" height="40" as="geometry"/>
                </mxCell>
                <mxCell id="371" value="" style="ellipse;whiteSpace=wrap;html=1;aspect=fixed;fillColor=none;strokeWidth=1.5;container=0;" parent="365" vertex="1">
                    <mxGeometry x="7.534999999999997" y="48.59999999999997" width="24.93" height="24.93" as="geometry"/>
                </mxCell>
                <mxCell id="372" value="" style="ellipse;whiteSpace=wrap;html=1;aspect=fixed;strokeColor=#82b366;fillColor=#d5e8d4;container=0;" parent="365" vertex="1">
                    <mxGeometry x="87.55" y="99.99999999999999" width="40" height="40" as="geometry"/>
                </mxCell>
                <mxCell id="373" value="" style="ellipse;whiteSpace=wrap;html=1;aspect=fixed;fillColor=none;strokeWidth=1.5;container=0;" parent="365" vertex="1">
                    <mxGeometry x="95.55" y="107.52999999999996" width="24.93" height="24.93" as="geometry"/>
                </mxCell>
                <mxCell id="382" value="" style="endArrow=none;html=1;rounded=0;fontSize=12;exitX=1;exitY=1;exitDx=0;exitDy=0;entryX=0;entryY=0.5;entryDx=0;entryDy=0;" parent="365" source="370" target="372" edge="1">
                    <mxGeometry width="50" height="50" relative="1" as="geometry">
                        <mxPoint x="44.142135623731065" y="74.14213562373106" as="sourcePoint"/>
                        <mxPoint x="95.31786437627579" y="85.85786437627576" as="targetPoint"/>
                    </mxGeometry>
                </mxCell>
                <mxCell id="384" value="" style="endArrow=none;html=1;rounded=0;fontSize=12;exitX=1;exitY=0.5;exitDx=0;exitDy=0;entryX=0;entryY=0.5;entryDx=0;entryDy=0;" parent="365" source="368" target="372" edge="1">
                    <mxGeometry width="50" height="50" relative="1" as="geometry">
                        <mxPoint x="44.142135623731065" y="74.14213562373106" as="sourcePoint"/>
                        <mxPoint x="94.85786437626894" y="219.85786437626894" as="targetPoint"/>
                    </mxGeometry>
                </mxCell>
                <mxCell id="386" value="" style="endArrow=none;html=1;rounded=0;fontSize=12;exitX=1;exitY=0;exitDx=0;exitDy=0;entryX=0;entryY=0.5;entryDx=0;entryDy=0;" parent="365" source="366" target="372" edge="1">
                    <mxGeometry width="50" height="50" relative="1" as="geometry">
                        <mxPoint x="50" y="200" as="sourcePoint"/>
                        <mxPoint x="89" y="234" as="targetPoint"/>
                    </mxGeometry>
                </mxCell>
                <mxCell id="398" value="" style="rounded=0;whiteSpace=wrap;html=1;strokeWidth=4;fillColor=none;" parent="365" vertex="1">
                    <mxGeometry x="-7.99" y="11.07" width="135.54" height="230" as="geometry"/>
                </mxCell>
                <mxCell id="400" value="" style="shape=cube;whiteSpace=wrap;html=1;boundedLbl=1;backgroundOutline=1;darkOpacity=0.05;darkOpacity2=0.1;size=7;direction=east;flipH=1;fillColor=#dae8fc;strokeColor=#6c8ebf;" parent="1" vertex="1">
                    <mxGeometry x="309.45000000000005" y="172.94000000000005" width="30" height="20" as="geometry"/>
                </mxCell>
                <mxCell id="401" value="" style="shape=cube;whiteSpace=wrap;html=1;boundedLbl=1;backgroundOutline=1;darkOpacity=0.05;darkOpacity2=0.1;size=7;direction=east;flipH=1;fillColor=#d5e8d4;strokeColor=#82b366;" parent="1" vertex="1">
                    <mxGeometry x="309.45000000000005" y="202.94000000000005" width="30" height="20" as="geometry"/>
                </mxCell>
                <mxCell id="402" value="Input Tensor" style="text;html=1;strokeColor=none;fillColor=none;align=left;verticalAlign=middle;whiteSpace=wrap;rounded=0;fontStyle=1" parent="1" vertex="1">
                    <mxGeometry x="350.45000000000005" y="170" width="138" height="23.88" as="geometry"/>
                </mxCell>
                <mxCell id="403" value="LSTM Neurons" style="text;html=1;strokeColor=none;fillColor=none;align=left;verticalAlign=middle;whiteSpace=wrap;rounded=0;fontStyle=1" parent="1" vertex="1">
                    <mxGeometry x="350.45000000000005" y="200" width="138" height="23.88" as="geometry"/>
                </mxCell>
                <mxCell id="404" value="Encoded Features" style="text;html=1;strokeColor=none;fillColor=none;align=left;verticalAlign=middle;whiteSpace=wrap;rounded=0;fontStyle=1" parent="1" vertex="1">
                    <mxGeometry x="350.45000000000005" y="231.06000000000006" width="138" height="23.88" as="geometry"/>
                </mxCell>
                <mxCell id="405" value="" style="shape=cube;whiteSpace=wrap;html=1;boundedLbl=1;backgroundOutline=1;darkOpacity=0.05;darkOpacity2=0.1;size=7;direction=east;flipH=1;fillColor=#ffe6cc;strokeColor=#d79b00;" parent="1" vertex="1">
                    <mxGeometry x="309.45000000000005" y="233" width="30" height="20" as="geometry"/>
                </mxCell>
                <mxCell id="406" value="" style="shape=cube;whiteSpace=wrap;html=1;boundedLbl=1;backgroundOutline=1;darkOpacity=0.05;darkOpacity2=0.1;size=7;direction=east;flipH=1;fillColor=#fff2cc;strokeColor=#d6b656;" parent="1" vertex="1">
                    <mxGeometry x="309.45000000000005" y="270.00000000000006" width="30" height="20" as="geometry"/>
                </mxCell>
                <mxCell id="407" value="Predicted Tensor" style="text;html=1;strokeColor=none;fillColor=none;align=left;verticalAlign=middle;whiteSpace=wrap;rounded=0;fontStyle=1" parent="1" vertex="1">
                    <mxGeometry x="350.45000000000005" y="266.12000000000006" width="138" height="23.88" as="geometry"/>
                </mxCell>
                <mxCell id="408" value="&lt;b&gt;Encoding lstm&amp;nbsp;&lt;/b&gt;" style="text;html=1;strokeColor=none;fillColor=none;align=center;verticalAlign=middle;whiteSpace=wrap;rounded=0;dashed=1;dashPattern=1 1;" parent="1" vertex="1">
                    <mxGeometry x="136.21000000000004" y="192.03999999999996" width="116" height="20" as="geometry"/>
                </mxCell>
                <mxCell id="409" value="&lt;b&gt;Decoding lstm&amp;nbsp;&lt;/b&gt;" style="text;html=1;strokeColor=none;fillColor=none;align=center;verticalAlign=middle;whiteSpace=wrap;rounded=0;dashed=1;dashPattern=1 1;" parent="1" vertex="1">
                    <mxGeometry x="147.21000000000004" y="262.0400000000001" width="116" height="20" as="geometry"/>
                </mxCell>
                <mxCell id="410" value="" style="shape=trapezoid;perimeter=trapezoidPerimeter;whiteSpace=wrap;html=1;fixedSize=1;dashed=1;dashPattern=1 1;fillColor=none;rotation=-90;" parent="1" vertex="1">
                    <mxGeometry x="89.74000000000001" y="184.08000000000004" width="57.47" height="35.92" as="geometry"/>
                </mxCell>
                <mxCell id="411" value="" style="shape=trapezoid;perimeter=trapezoidPerimeter;whiteSpace=wrap;html=1;fixedSize=1;dashed=1;dashPattern=1 1;fillColor=none;rotation=-90;direction=west;" parent="1" vertex="1">
                    <mxGeometry x="89.74000000000001" y="254.08000000000004" width="57.47" height="35.92" as="geometry"/>
                </mxCell>
                <mxCell id="412" value="n = Sequence length (15)&amp;nbsp;" style="text;html=1;strokeColor=none;fillColor=none;align=center;verticalAlign=middle;whiteSpace=wrap;rounded=0;dashed=1;dashPattern=1 1;" parent="1" vertex="1">
                    <mxGeometry x="-202.26" y="190" width="156.51" height="20" as="geometry"/>
                </mxCell>
                <mxCell id="413" value="m = Batch Size&amp;nbsp;" style="text;html=1;strokeColor=none;fillColor=none;align=left;verticalAlign=middle;whiteSpace=wrap;rounded=0;dashed=1;dashPattern=1 1;" parent="1" vertex="1">
                    <mxGeometry x="-196.13" y="210" width="140" height="20" as="geometry"/>
                </mxCell>
                <mxCell id="414" value="c = Feature size" style="text;html=1;strokeColor=none;fillColor=none;align=left;verticalAlign=middle;whiteSpace=wrap;rounded=0;dashed=1;dashPattern=1 1;" parent="1" vertex="1">
                    <mxGeometry x="-196.13" y="230" width="211" height="20" as="geometry"/>
                </mxCell>
                <mxCell id="418" value="" style="shape=cube;whiteSpace=wrap;html=1;boundedLbl=1;backgroundOutline=1;darkOpacity=0.05;darkOpacity2=0.1;size=7;direction=east;flipH=1;fillColor=#fff2cc;strokeColor=#d6b656;" parent="1" vertex="1">
                    <mxGeometry x="620" y="-103.92999999999995" width="30" height="20" as="geometry"/>
                </mxCell>
                <mxCell id="419" style="edgeStyle=none;html=1;entryX=1.022;entryY=0.511;entryDx=0;entryDy=0;entryPerimeter=0;" parent="1" source="398" target="418" edge="1">
                    <mxGeometry relative="1" as="geometry"/>
                </mxCell>
                <mxCell id="420" value="P(real)" style="text;html=1;align=center;verticalAlign=middle;resizable=0;points=[];autosize=1;strokeColor=none;fillColor=none;" parent="1" vertex="1">
                    <mxGeometry x="605" y="-133.93" width="60" height="30" as="geometry"/>
                </mxCell>
                <mxCell id="421" value="Output Layer" style="text;html=1;align=center;verticalAlign=middle;resizable=0;points=[];autosize=1;strokeColor=none;fillColor=none;" vertex="1" parent="1">
                    <mxGeometry x="455" y="-255" width="90" height="30" as="geometry"/>
                </mxCell>
                <mxCell id="422" value="FC" style="text;html=1;align=center;verticalAlign=middle;resizable=0;points=[];autosize=1;strokeColor=none;fillColor=none;" vertex="1" parent="1">
                    <mxGeometry x="-20" y="-255" width="40" height="30" as="geometry"/>
                </mxCell>
            </root>
        </mxGraphModel>
    </diagram>
</mxfile>